<svg width="24" height="24" viewBox="0 0 24 24" fill="none" xmlns="http://www.w3.org/2000/svg">
<path d="M5.5 8.5C5.82338 8.83255 6.21305 9.09342 6.64373 9.26569C7.07441 9.43797 7.53649 9.51779 8 9.5C8.46352 9.51779 8.9256 9.43797 9.35628 9.26569C9.78696 9.09342 10.1766 8.83255 10.5 8.5M13.5 8.5C13.8234 8.83255 14.213 9.09342 14.6437 9.26569C15.0744 9.43797 15.5365 9.51779 16 9.5C16.4635 9.51779 16.9256 9.43797 17.3563 9.26569C17.787 9.09342 18.1766 8.83255 18.5 8.5M16.5 17.5C16.4304 16.3741 15.9181 15.3214 15.075 14.5719C14.2318 13.8225 13.1263 13.4371 12 13.5C10.8737 13.4371 9.76819 13.8225 8.92504 14.5719C8.08189 15.3214 7.56958 16.3741 7.5 17.5M22.5 12C22.5 14.0767 21.8842 16.1068 20.7304 17.8335C19.5767 19.5602 17.9368 20.906 16.0182 21.7007C14.0996 22.4955 11.9884 22.7034 9.95156 22.2982C7.91476 21.8931 6.04384 20.8931 4.57538 19.4246C3.10693 17.9562 2.1069 16.0852 1.70176 14.0484C1.29661 12.0116 1.50455 9.90045 2.29927 7.98182C3.09399 6.0632 4.4398 4.42332 6.16652 3.26957C7.89323 2.11581 9.9233 1.5 12 1.5C14.7848 1.5 17.4555 2.60625 19.4246 4.57538C21.3938 6.54451 22.5 9.21523 22.5 12Z" stroke="#232323" stroke-linecap="round" stroke-linejoin="round"/>
<path d="M5.5 8.5C5.82338 8.83255 6.21305 9.09342 6.64373 9.26569C7.07441 9.43797 7.53649 9.51779 8 9.5C8.46352 9.51779 8.9256 9.43797 9.35628 9.26569C9.78696 9.09342 10.1766 8.83255 10.5 8.5M13.5 8.5C13.8234 8.83255 14.213 9.09342 14.6437 9.26569C15.0744 9.43797 15.5365 9.51779 16 9.5C16.4635 9.51779 16.9256 9.43797 17.3563 9.26569C17.787 9.09342 18.1766 8.83255 18.5 8.5M16.5 17.5C16.4304 16.3741 15.9181 15.3214 15.075 14.5719C14.2318 13.8225 13.1263 13.4371 12 13.5C10.8737 13.4371 9.76819 13.8225 8.92504 14.5719C8.08189 15.3214 7.56958 16.3741 7.5 17.5M22.5 12C22.5 14.0767 21.8842 16.1068 20.7304 17.8335C19.5767 19.5602 17.9368 20.906 16.0182 21.7007C14.0996 22.4955 11.9884 22.7034 9.95156 22.2982C7.91476 21.8931 6.04384 20.8931 4.57538 19.4246C3.10693 17.9562 2.1069 16.0852 1.70176 14.0484C1.29661 12.0116 1.50455 9.90045 2.29927 7.98182C3.09399 6.0632 4.4398 4.42332 6.16652 3.26957C7.89323 2.11581 9.9233 1.5 12 1.5C14.7848 1.5 17.4555 2.60625 19.4246 4.57538C21.3938 6.54451 22.5 9.21523 22.5 12Z" stroke="black" stroke-opacity="0.2" stroke-linecap="round" stroke-linejoin="round"/>
<path d="M5.5 8.5C5.82338 8.83255 6.21305 9.09342 6.64373 9.26569C7.07441 9.43797 7.53649 9.51779 8 9.5C8.46352 9.51779 8.9256 9.43797 9.35628 9.26569C9.78696 9.09342 10.1766 8.83255 10.5 8.5M13.5 8.5C13.8234 8.83255 14.213 9.09342 14.6437 9.26569C15.0744 9.43797 15.5365 9.51779 16 9.5C16.4635 9.51779 16.9256 9.43797 17.3563 9.26569C17.787 9.09342 18.1766 8.83255 18.5 8.5M16.5 17.5C16.4304 16.3741 15.9181 15.3214 15.075 14.5719C14.2318 13.8225 13.1263 13.4371 12 13.5C10.8737 13.4371 9.76819 13.8225 8.92504 14.5719C8.08189 15.3214 7.56958 16.3741 7.5 17.5M22.5 12C22.5 14.0767 21.8842 16.1068 20.7304 17.8335C19.5767 19.5602 17.9368 20.906 16.0182 21.7007C14.0996 22.4955 11.9884 22.7034 9.95156 22.2982C7.91476 21.8931 6.04384 20.8931 4.57538 19.4246C3.10693 17.9562 2.1069 16.0852 1.70176 14.0484C1.29661 12.0116 1.50455 9.90045 2.29927 7.98182C3.09399 6.0632 4.4398 4.42332 6.16652 3.26957C7.89323 2.11581 9.9233 1.5 12 1.5C14.7848 1.5 17.4555 2.60625 19.4246 4.57538C21.3938 6.54451 22.5 9.21523 22.5 12Z" stroke="black" stroke-opacity="0.2" stroke-linecap="round" stroke-linejoin="round"/>
</svg>
