<svg width="24" height="24" viewBox="0 0 24 24" fill="none" xmlns="http://www.w3.org/2000/svg">
<path fill-rule="evenodd" clip-rule="evenodd" d="M8.5665 18.585H8.913C8.98575 18.585 9.0555 18.5557 9.10725 18.5047C9.15825 18.453 9.1875 18.3832 9.1875 18.3105C9.1875 18.3097 9.1875 18.309 9.1875 18.3083C9.1875 18.2355 9.15825 18.1658 9.10725 18.114C9.0555 18.063 8.98575 18.0338 8.913 18.0338H8.667C8.3565 18.0338 8.1045 17.7817 8.1045 17.4713C8.1045 17.1607 8.3565 16.9088 8.667 16.9088H12.4313C12.504 16.9088 12.5737 16.8795 12.6255 16.8285C12.6765 16.7767 12.7057 16.707 12.7057 16.6343C12.7057 16.6335 12.7057 16.6328 12.7057 16.632C12.7057 16.5593 12.6765 16.4895 12.6255 16.4377C12.5737 16.3868 12.504 16.3575 12.4313 16.3575C12.4313 16.3575 9.753 16.3575 8.1495 16.3575C7.68975 16.3575 7.248 16.1745 6.9225 15.849C6.597 15.5235 6.414 15.0825 6.414 14.622C6.414 14.115 6.414 13.635 6.414 13.635C6.414 13.275 6.12225 12.9825 5.7615 12.9825C5.691 12.9825 5.62425 13.0162 5.583 13.0732C5.541 13.1302 5.52975 13.2037 5.5515 13.2712C5.55525 13.2817 5.55825 13.293 5.56125 13.3043C5.64 13.611 5.6655 13.9582 5.631 14.3475C5.59125 15.3412 4.932 16.2045 3.9795 16.5045C3.6075 16.62 3.26475 16.8188 2.973 17.085C2.8425 17.2035 2.664 17.2545 2.49075 17.2215C2.3175 17.1892 2.169 17.0775 2.09025 16.9193C1.35225 15.4373 0.9375 13.7662 0.9375 12C0.9375 5.89425 5.89425 0.9375 12 0.9375C18.1057 0.9375 23.0625 5.89425 23.0625 12C23.0625 18.1057 18.1057 23.0625 12 23.0625C10.9148 23.0625 9.86625 22.9058 8.87625 22.614C8.71125 22.566 8.57775 22.4453 8.51325 22.2855C8.4495 22.1265 8.46075 21.9465 8.5455 21.7972C8.568 21.7575 8.58075 21.7118 8.58075 21.663C8.58075 21.6623 8.58075 21.6615 8.58075 21.6608C8.58075 21.5273 8.4855 21.4155 8.35875 21.3915C8.08125 21.3382 7.8855 21.087 7.90275 20.805L7.9035 20.79C7.9215 20.493 8.1675 20.2612 8.46525 20.2612H8.68125C8.754 20.2612 8.82375 20.232 8.8755 20.181C8.9265 20.1293 8.95575 20.0595 8.95575 19.9867C8.95575 19.986 8.95575 19.9853 8.95575 19.9845C8.95575 19.9118 8.9265 19.842 8.8755 19.7902C8.82375 19.7393 8.754 19.71 8.68125 19.71H8.5665C8.25525 19.71 8.004 19.458 8.004 19.1475C8.004 18.837 8.25525 18.585 8.5665 18.585Z" fill="url(#paint0_radial_277_2970)"/>
<path d="M15.6173 11.0624C16.5526 11.0624 17.3108 10.3042 17.3108 9.36891C17.3108 8.43362 16.5526 7.67542 15.6173 7.67542C14.682 7.67542 13.9238 8.43362 13.9238 9.36891C13.9238 10.3042 14.682 11.0624 15.6173 11.0624Z" fill="#3C4D4D"/>
<path d="M8.38271 10.6814C9.318 10.6814 10.0762 9.92323 10.0762 8.98793C10.0762 8.05264 9.318 7.29443 8.38271 7.29443C7.44741 7.29443 6.68921 8.05264 6.68921 8.98793C6.68921 9.92323 7.44741 10.6814 8.38271 10.6814Z" fill="#3C4D4D"/>
<path fill-rule="evenodd" clip-rule="evenodd" d="M9.81293 13.3087C9.81293 13.3087 12.9127 12.9607 15.3899 15.0254C15.6284 15.2242 15.9832 15.1919 16.1819 14.9534C16.3807 14.7149 16.3484 14.3602 16.1099 14.1614C13.2577 11.7839 9.68693 12.1912 9.68693 12.1912C9.37793 12.2257 9.15593 12.5047 9.19118 12.8129C9.22568 13.1219 9.50468 13.3439 9.81293 13.3087Z" fill="#3C4D4D"/>
<path fill-rule="evenodd" clip-rule="evenodd" d="M17.2454 4.99494L13.9499 5.92119C13.6514 6.00519 13.4766 6.31644 13.5606 6.61494C13.6446 6.91419 13.9559 7.08894 14.2544 7.00494L17.5499 6.07869C17.8484 5.99469 18.0231 5.68344 17.9391 5.38494C17.8551 5.08569 17.5439 4.91094 17.2454 4.99494Z" fill="#3C4D4D"/>
<path fill-rule="evenodd" clip-rule="evenodd" d="M6.90521 6.07869L10.2 7.00494C10.4992 7.08894 10.8097 6.91419 10.8937 6.61494C10.9777 6.31644 10.8037 6.00519 10.5045 5.92119L7.20896 4.99494C6.91046 4.91094 6.59921 5.08569 6.51521 5.38494C6.43121 5.68344 6.60596 5.99469 6.90521 6.07869Z" fill="#3C4D4D"/>
<path fill-rule="evenodd" clip-rule="evenodd" d="M4.47375 13.5945C4.3515 13.1918 4.42425 12.7538 4.6725 12.4125C4.92525 12.0638 5.3295 11.8575 5.76 11.8575H5.7615C6.74325 11.8575 7.539 12.6533 7.539 13.635V14.622C7.539 14.784 7.6035 14.9393 7.71825 15.054C7.83225 15.168 7.9875 15.2325 8.1495 15.2325H12.4313C12.8025 15.2325 13.158 15.3803 13.4205 15.6428C13.683 15.9045 13.8307 16.2608 13.8307 16.632V16.6343C13.8307 17.0055 13.683 17.3618 13.4205 17.6235C13.158 17.886 12.8025 18.0338 12.4313 18.0338H10.2855C10.3035 18.1238 10.3125 18.2153 10.3125 18.3083V18.3105C10.3125 18.6818 10.1648 19.038 9.90225 19.2998L9.9015 19.3005C10.0185 19.5075 10.0807 19.743 10.0807 19.9845V19.9868C10.0807 20.358 9.933 20.7143 9.6705 20.976C9.63975 21.0075 9.60675 21.0375 9.573 21.0653C9.65775 21.246 9.70575 21.4478 9.70575 21.6608V21.663C9.70575 22.3823 9.16275 22.9748 8.4645 23.0535C8.4315 23.0595 8.3985 23.0625 8.364 23.0625H4.851C3.813 23.0625 2.81775 22.65 2.0835 21.9165C1.35 21.1823 0.9375 20.187 0.9375 19.149C0.9375 19.1483 0.9375 19.1468 0.9375 19.146C0.9375 18.108 1.35 17.1128 2.0835 16.3785C2.5215 15.9405 3.05325 15.6173 3.63075 15.4275L3.63825 15.4253C4.13325 15.27 4.47675 14.82 4.4955 14.3018C4.49625 14.2845 4.49775 14.2673 4.5 14.2508C4.5315 14.0055 4.5225 13.7873 4.47375 13.5945Z" fill="url(#paint1_radial_277_2970)"/>
<defs>
<radialGradient id="paint0_radial_277_2970" cx="0" cy="0" r="1" gradientUnits="userSpaceOnUse" gradientTransform="translate(12 12) scale(11.0625)">
<stop stop-color="#FBEF57"/>
<stop offset="1" stop-color="#FBC02A"/>
</radialGradient>
<radialGradient id="paint1_radial_277_2970" cx="0" cy="0" r="1" gradientUnits="userSpaceOnUse" gradientTransform="translate(5.62425 18.768) rotate(-13.5621) scale(28.161)">
<stop stop-color="white"/>
<stop offset="0.48" stop-color="#DFDFDF"/>
<stop offset="1" stop-color="#D5D5D5"/>
</radialGradient>
</defs>
</svg>
