<svg width="24" height="24" viewBox="0 0 24 24" fill="none" xmlns="http://www.w3.org/2000/svg">
<g clip-path="url(#clip0_277_2900)">
<path d="M12.0001 23.625C1.61262 23.625 0.360869 14.625 0.375119 12.375V11.625C0.360869 9.375 1.61262 0.375 12.0001 0.375C22.3876 0.375 23.6394 9.375 23.6251 11.625V12.375C23.6394 14.625 22.3876 23.625 12.0001 23.625Z" fill="url(#paint0_linear_277_2900)"/>
<path d="M16.4918 16.875C16.4605 16.5101 16.3865 16.1501 16.2713 15.8025C16.0207 15.072 15.5807 14.421 14.9963 13.9162C14.1787 13.1661 13.1096 12.75 12 12.75C10.8905 12.75 9.82136 13.1661 9.00379 13.9162C8.41935 14.421 7.97938 15.072 7.72879 15.8025C7.61361 16.1501 7.5396 16.5101 7.50829 16.875H7.50004V17.25H7.50829C7.50829 17.2706 7.50191 17.2875 7.50004 17.31C7.48504 17.5087 7.63879 17.6662 7.80004 17.6137C8.46004 17.4037 10.0988 16.5 12 16.5C13.9013 16.5 15.54 17.4037 16.2 17.6137C16.3613 17.6662 16.515 17.5087 16.5 17.31C16.4982 17.289 16.4937 17.2725 16.4918 17.25H16.5V16.875H16.4918Z" fill="#F9BF06"/>
<path d="M16.4918 16.5C16.4605 16.1351 16.3865 15.7751 16.2713 15.4275C16.0207 14.697 15.5807 14.046 14.9963 13.5412C14.1787 12.7911 13.1096 12.375 12 12.375C10.8905 12.375 9.82136 12.7911 9.00379 13.5412C8.41935 14.046 7.97938 14.697 7.72879 15.4275C7.61361 15.7751 7.5396 16.1351 7.50829 16.5H7.50004V16.875H7.50829C7.50829 16.8956 7.50191 16.9125 7.50004 16.935C7.48504 17.1337 7.63879 17.2912 7.80004 17.2387C8.46004 17.0287 10.0988 16.125 12 16.125C13.9013 16.125 15.54 17.0287 16.2 17.2387C16.3613 17.2912 16.515 17.1337 16.5 16.935C16.4982 16.914 16.4937 16.8975 16.4918 16.875H16.5V16.5H16.4918Z" fill="#ED8D06"/>
<path d="M16.5 16.935C16.515 17.1337 16.3613 17.2912 16.2 17.2387C15.54 17.0287 13.9013 16.125 12 16.125C10.0988 16.125 8.46004 17.0287 7.80004 17.2387C7.63879 17.2912 7.48504 17.1337 7.50004 16.935C7.52902 16.5494 7.60586 16.169 7.72879 15.8025C7.97938 15.072 8.41935 14.421 9.00379 13.9162C9.82136 13.1661 10.8905 12.75 12 12.75C13.1096 12.75 14.1787 13.1661 14.9963 13.9162C15.5807 14.421 16.0207 15.072 16.2713 15.8025C16.3942 16.169 16.4711 16.5494 16.5 16.935Z" fill="url(#paint1_linear_277_2900)"/>
<path d="M17.625 7.50002C15.375 7.12502 15 7.87502 15 7.87502C15 7.87502 19.5 9.00002 21 9.75002C20.6158 9.16899 20.1193 8.67064 19.5397 8.28425C18.9601 7.89785 18.3091 7.63122 17.625 7.50002Z" fill="#ED8D06"/>
<path d="M6.375 7.50002C8.625 7.12502 9 7.87502 9 7.87502C9 7.87502 4.5 9.00002 3 9.75002C3.38423 9.16899 3.88073 8.67064 4.46032 8.28425C5.03991 7.89785 5.69089 7.63122 6.375 7.50002Z" fill="#ED8D06"/>
<path d="M6.37522 22.4813C8.0095 23.2228 9.78184 23.6113 11.5765 23.6213V23.625H1.12522C1.02674 23.6256 0.929169 23.6062 0.838324 23.5682C0.747479 23.5302 0.665224 23.4743 0.596467 23.4038C0.526397 23.3347 0.470757 23.2524 0.432779 23.1616C0.394801 23.0708 0.375244 22.9734 0.375244 22.875C0.375244 22.7766 0.394801 22.6792 0.432779 22.5885C0.470757 22.4977 0.526397 22.4154 0.596467 22.3463C0.665224 22.2758 0.747479 22.2199 0.838324 22.1818C0.929169 22.1438 1.02674 22.1245 1.12522 22.125C1.52304 22.125 1.90457 21.967 2.18588 21.6857C2.46718 21.4044 2.62522 21.0229 2.62522 20.625V19.3425C2.65147 12.3263 4.50022 9.00003 4.50022 9.00003L4.47022 8.93628C5.54262 8.4569 6.67773 8.13241 7.84147 7.97253C7.66897 8.50503 6.87772 11.205 6.53647 16.8788C6.43897 18.4988 6.37522 20.3588 6.37522 22.4813Z" fill="url(#paint2_linear_277_2900)"/>
<path d="M17.625 22.4813C17.625 20.3588 17.5612 18.4988 17.4637 16.8788C17.1225 11.205 16.3312 8.50503 16.1588 7.97253C17.3225 8.13241 18.4576 8.4569 19.53 8.93628L19.5 9.00003C19.5 9.00003 21.3488 12.3263 21.375 19.3425V20.625C21.375 21.0229 21.533 21.4044 21.8143 21.6857C22.0956 21.967 22.4772 22.125 22.875 22.125C23.0739 22.125 23.2647 22.2041 23.4053 22.3447C23.546 22.4854 23.625 22.6761 23.625 22.875C23.625 23.0739 23.546 23.2647 23.4053 23.4054C23.2647 23.546 23.0739 23.625 22.875 23.625H12.375V23.6213C14.1862 23.6194 15.9761 23.2308 17.625 22.4813Z" fill="url(#paint3_linear_277_2900)"/>
<path d="M6.75022 22.65C6.69884 22.6282 6.65084 22.6035 6.60022 22.581C6.52522 22.548 6.44797 22.5165 6.37522 22.482V22.4775C4.87742 21.7692 3.58629 20.6887 2.62522 19.3391V20.625C2.62522 21.0228 2.46718 21.4043 2.18588 21.6856C1.90457 21.967 1.52304 22.125 1.12522 22.125C1.02674 22.1245 0.929169 22.1438 0.838324 22.1818C0.747479 22.2198 0.665224 22.2757 0.596467 22.3462C0.526397 22.4153 0.470757 22.4976 0.432779 22.5884C0.394801 22.6792 0.375244 22.7766 0.375244 22.875C0.375244 22.9734 0.394801 23.0708 0.432779 23.1616C0.470757 23.2523 0.526397 23.3347 0.596467 23.4037C0.665224 23.4742 0.747479 23.5302 0.838324 23.5682C0.929169 23.6062 1.02674 23.6255 1.12522 23.625H11.5765V23.6212C9.86509 23.6078 8.17349 23.2539 6.60022 22.5802C6.65084 22.6027 6.69884 22.6275 6.75022 22.65Z" fill="url(#paint4_linear_277_2900)"/>
<path d="M23.4038 22.3462C23.335 22.2757 23.2527 22.2198 23.1619 22.1818C23.071 22.1438 22.9735 22.1245 22.875 22.125C22.4772 22.125 22.0956 21.967 21.8143 21.6856C21.533 21.4043 21.375 21.0228 21.375 20.625V19.3391C20.4138 20.6884 19.1227 21.7687 17.625 22.4767V22.4812C17.55 22.5187 17.4671 22.5506 17.3884 22.5855C15.8035 23.2632 14.0986 23.6154 12.375 23.6212V23.625H22.875C23.0234 23.6254 23.1685 23.5818 23.292 23.4995C23.4154 23.4172 23.5116 23.3001 23.5683 23.163C23.625 23.0259 23.6396 22.875 23.6103 22.7296C23.581 22.5841 23.5091 22.4507 23.4038 22.3462Z" fill="url(#paint5_linear_277_2900)"/>
<path d="M21 9.75002C20.5327 9.43965 20.0411 9.16752 19.53 8.93627C18.4576 8.45689 17.3225 8.13239 16.1588 7.97252C15.7749 7.91619 15.3879 7.88363 15 7.87502C15 7.87502 15.375 7.12502 17.625 7.50002C18.3091 7.63122 18.9601 7.89785 19.5397 8.28425C20.1193 8.67064 20.6158 9.16899 21 9.75002Z" fill="url(#paint6_linear_277_2900)"/>
<path d="M15.75 4.5C15.75 4.5 16.125 7.875 21 7.5C18 7.125 15.75 4.5 15.75 4.5Z" fill="#ED8D06"/>
<path d="M21 7.5C16.5 7.5 15.75 4.5 15.75 4.5C15.75 4.5 18 7.125 21 7.5Z" fill="url(#paint7_linear_277_2900)"/>
<path d="M3 9.75002C3.4673 9.43965 3.9589 9.16752 4.47 8.93627C5.5424 8.45689 6.67751 8.13239 7.84125 7.97252C8.22512 7.91619 8.61211 7.88363 9 7.87502C9 7.87502 8.625 7.12502 6.375 7.50002C5.69089 7.63122 5.03991 7.89785 4.46032 8.28425C3.88073 8.67064 3.38423 9.16899 3 9.75002Z" fill="url(#paint8_linear_277_2900)"/>
<path d="M8.25 4.5C8.25 4.5 7.875 7.875 3 7.5C6 7.125 8.25 4.5 8.25 4.5Z" fill="#ED8D06"/>
<path d="M3 7.5C7.5 7.5 8.25 4.5 8.25 4.5C8.25 4.5 6 7.125 3 7.5Z" fill="url(#paint9_linear_277_2900)"/>
<path d="M16.1587 7.97253C16.3312 8.50503 16.7474 11.205 17.0887 16.8788C17.1828 18.4448 17.2451 20.5849 17.2492 22.6429C17.3617 22.5949 17.4772 22.5495 17.5867 22.4985C17.5998 22.4925 17.6114 22.4854 17.6242 22.4794C17.6242 20.358 17.5604 18.4988 17.4629 16.8795C17.1224 11.205 16.3312 8.50503 16.1587 7.97253Z" fill="#ED8D06"/>
<path d="M6.375 22.4787C6.38775 22.4847 6.399 22.4914 6.4125 22.4974L6.4185 22.5C6.52575 22.5507 6.6405 22.5957 6.7515 22.6429C6.75562 20.5849 6.81787 18.4448 6.912 16.8788C7.25325 11.205 7.6695 8.50503 7.842 7.97253C7.6695 8.50503 6.87825 11.205 6.537 16.8788C6.43875 18.498 6.375 20.3573 6.375 22.4787Z" fill="#ED8D06"/>
</g>
<defs>
<linearGradient id="paint0_linear_277_2900" x1="12.0001" y1="0.489" x2="12.0001" y2="23.739" gradientUnits="userSpaceOnUse">
<stop stop-color="#FFE100"/>
<stop offset="1" stop-color="#F98900"/>
</linearGradient>
<linearGradient id="paint1_linear_277_2900" x1="12" y1="16.1321" x2="12" y2="12.8617" gradientUnits="userSpaceOnUse">
<stop stop-color="#911625"/>
<stop offset="0.412" stop-color="#69101B"/>
<stop offset="0.788" stop-color="#4B0C13"/>
<stop offset="1" stop-color="#400A10"/>
</linearGradient>
<linearGradient id="paint2_linear_277_2900" x1="5.97584" y1="8.60141" x2="5.97584" y2="23.2883" gradientUnits="userSpaceOnUse">
<stop stop-color="#8AD4FF"/>
<stop offset="0.535" stop-color="#3E9FF5"/>
<stop offset="1" stop-color="#0073ED"/>
</linearGradient>
<linearGradient id="paint3_linear_277_2900" x1="18" y1="8.55941" x2="18" y2="23.2024" gradientUnits="userSpaceOnUse">
<stop stop-color="#8AD4FF"/>
<stop offset="0.535" stop-color="#3E9FF5"/>
<stop offset="1" stop-color="#0073ED"/>
</linearGradient>
<linearGradient id="paint4_linear_277_2900" x1="1.34422" y1="24.9094" x2="4.99334" y2="22.737" gradientUnits="userSpaceOnUse">
<stop stop-color="#8AD4FF"/>
<stop offset="0.26" stop-color="#5AB3F9"/>
<stop offset="0.745" stop-color="#0577EE"/>
<stop offset="1" stop-color="#0073ED"/>
</linearGradient>
<linearGradient id="paint5_linear_277_2900" x1="22.0369" y1="25.2026" x2="19.242" y2="23.1881" gradientUnits="userSpaceOnUse">
<stop stop-color="#8AD4FF"/>
<stop offset="0.26" stop-color="#5AB3F9"/>
<stop offset="0.745" stop-color="#0577EE"/>
<stop offset="1" stop-color="#0073ED"/>
</linearGradient>
<linearGradient id="paint6_linear_277_2900" x1="18.2963" y1="7.58327" x2="18.0975" y2="8.40752" gradientUnits="userSpaceOnUse">
<stop stop-color="#803F02"/>
<stop offset="0.174" stop-color="#6D3602"/>
<stop offset="0.515" stop-color="#4D2601"/>
<stop offset="0.802" stop-color="#3A1C01"/>
<stop offset="1" stop-color="#331901"/>
</linearGradient>
<linearGradient id="paint7_linear_277_2900" x1="20.1758" y1="7.68375" x2="15.8726" y2="4.83638" gradientUnits="userSpaceOnUse">
<stop offset="0.005" stop-color="#414D4D"/>
<stop offset="0.206" stop-color="#3A4545"/>
<stop offset="0.522" stop-color="#272E2E"/>
<stop offset="0.914" stop-color="#080909"/>
<stop offset="1"/>
</linearGradient>
<linearGradient id="paint8_linear_277_2900" x1="5.70375" y1="7.58327" x2="5.9025" y2="8.40752" gradientUnits="userSpaceOnUse">
<stop stop-color="#803F02"/>
<stop offset="0.174" stop-color="#6D3602"/>
<stop offset="0.515" stop-color="#4D2601"/>
<stop offset="0.802" stop-color="#3A1C01"/>
<stop offset="1" stop-color="#331901"/>
</linearGradient>
<linearGradient id="paint9_linear_277_2900" x1="3.513" y1="7.81425" x2="8.49113" y2="4.81912" gradientUnits="userSpaceOnUse">
<stop offset="0.005" stop-color="#414D4D"/>
<stop offset="0.206" stop-color="#3A4545"/>
<stop offset="0.522" stop-color="#272E2E"/>
<stop offset="0.914" stop-color="#080909"/>
<stop offset="1"/>
</linearGradient>
<clipPath id="clip0_277_2900">
<rect width="24" height="24" fill="white"/>
</clipPath>
</defs>
</svg>
