<svg width="24" height="24" viewBox="0 0 24 24" fill="none" xmlns="http://www.w3.org/2000/svg">
<g clip-path="url(#clip0_277_2980)">
<path d="M6.17002 9.61865H2.0468C1.90289 9.61865 1.78125 9.74086 1.78125 9.88551V21.3874C1.78125 21.5321 1.90289 21.6543 2.0468 21.6543H6.17002C6.31392 21.6543 6.43556 21.5321 6.43556 21.3874V9.88551C6.43556 9.74086 6.31392 9.61865 6.17002 9.61865Z" fill="#3B97D3"/>
<path fill-rule="evenodd" clip-rule="evenodd" d="M23.625 14.2612C23.625 13.55 23.3311 12.9062 22.8585 12.4447C23.3304 11.9945 23.625 11.3598 23.625 10.6576C23.625 9.29539 22.5168 8.18717 21.1546 8.18717H15.8358L16.3873 5.50817C16.3918 5.48647 16.3952 5.46453 16.3977 5.44245C16.6191 3.40883 15.9117 2.31936 15.2793 1.76351C14.5779 1.14687 13.3473 0.697624 12.3525 1.03226C11.6949 1.25347 11.2502 1.78067 11.1004 2.51689C10.6285 4.83828 9.86273 6.79311 8.53997 9.05281C8.37675 9.3312 8.12259 9.50825 7.81087 9.56576C7.66134 8.79565 6.98264 8.21239 6.17006 8.21239H2.0468C1.12495 8.21239 0.375 8.96295 0.375 9.8855V21.3874C0.375 22.31 1.12495 23.0605 2.0468 23.0605H6.17002C6.98977 23.0605 7.67311 22.4668 7.81453 21.6866H8.63489C8.95294 21.6866 9.2062 21.7917 9.43191 22.0175L9.75441 22.34C10.2416 22.8253 10.8612 23.0818 11.5463 23.0818H19.782C20.9537 23.0818 21.9069 22.1286 21.9069 20.9569C21.9069 20.6059 21.8213 20.2745 21.6698 19.9826C22.4622 19.5839 23.0071 18.7629 23.0071 17.8169C23.0071 17.2694 22.8245 16.7638 22.5171 16.3577C23.1855 15.8997 23.625 15.1308 23.625 14.2611V14.2612ZM6.43556 21.3874C6.43556 21.5321 6.31392 21.6543 6.17002 21.6543H2.0468C1.90289 21.6543 1.78125 21.5321 1.78125 21.3874V9.8855C1.78125 9.74084 1.90289 9.61864 2.0468 9.61864H6.17002C6.31392 9.61864 6.43556 9.74084 6.43556 9.8855V21.3874ZM21.1546 11.7217H19.0246C18.6363 11.7217 18.3215 12.0365 18.3215 12.4248C18.3215 12.8131 18.6363 13.1279 19.0246 13.1279H21.0855C21.7104 13.1279 22.2188 13.6363 22.2188 14.2612C22.2188 14.8861 21.7104 15.3944 21.0855 15.3944H19.0246C18.6363 15.3944 18.3215 15.7092 18.3215 16.0976C18.3215 16.4859 18.6363 16.8007 19.0246 16.8007H20.5845C21.1449 16.8007 21.6009 17.2566 21.6009 17.817C21.6009 18.3774 21.1449 18.8333 20.5845 18.8333H19.0246C18.6363 18.8333 18.3215 19.1481 18.3215 19.5364C18.3215 19.9247 18.6363 20.2395 19.0246 20.2395H19.782C20.1782 20.2395 20.5006 20.5613 20.5006 20.9569C20.5006 21.3525 20.1782 21.6756 19.782 21.6756H11.5463C11.2282 21.6756 10.9742 21.5701 10.7479 21.3447L10.4264 21.0231C9.9405 20.5372 9.321 20.2804 8.63494 20.2804H7.84186V10.9791C8.65167 10.9026 9.33909 10.4701 9.75328 9.76372C11.159 7.36231 11.974 5.27881 12.4785 2.7972C12.5407 2.49111 12.6764 2.40701 12.8008 2.36516C13.1988 2.23137 13.9231 2.44367 14.3508 2.8197C14.8936 3.29684 15.1189 4.13951 15.0031 5.25814L14.2845 8.74855C14.2418 8.95555 14.2946 9.17075 14.4281 9.33458C14.5617 9.4984 14.7618 9.59347 14.9731 9.59347H21.1546C21.7414 9.59347 22.2188 10.0708 22.2188 10.6576C22.2188 11.2444 21.7413 11.7218 21.1546 11.7218V11.7217ZM4.812 19.4235C4.812 19.8102 4.49573 20.1264 4.10775 20.1264C3.71977 20.1264 3.40481 19.8102 3.40481 19.4235C3.40481 19.0368 3.72108 18.7206 4.10775 18.7206C4.49442 18.7206 4.812 19.0355 4.812 19.4235Z" fill="black"/>
<path d="M19.0245 11.7217H21.1545C21.7413 11.7217 22.2187 11.2443 22.2187 10.6575C22.2187 10.0707 21.7413 9.59335 21.1545 9.59335H14.9731C14.7617 9.59335 14.5616 9.49829 14.4281 9.33446C14.2945 9.17063 14.2417 8.95543 14.2844 8.74843L15.003 5.25802C15.1189 4.1394 14.8936 3.29673 14.3508 2.81959C13.923 2.4436 13.1988 2.23126 12.8007 2.36504C12.6763 2.4069 12.5406 2.49099 12.4784 2.79709C11.9739 5.2787 11.159 7.3622 9.75322 9.7636C9.33903 10.47 8.65161 10.9025 7.8418 10.979V20.2802H8.63487C9.32094 20.2802 9.94044 20.5371 10.4263 21.023L10.7479 21.3446C10.9741 21.57 11.2281 21.6755 11.5462 21.6755H19.7819C20.1782 21.6755 20.5006 21.3531 20.5006 20.9568C20.5006 20.5605 20.1782 20.2394 19.7819 20.2394H19.0245C18.6362 20.2394 18.3214 19.9246 18.3214 19.5363C18.3214 19.148 18.6362 18.8332 19.0245 18.8332H20.5845C21.1449 18.8332 21.6008 18.3773 21.6008 17.8169C21.6008 17.2565 21.1449 16.8006 20.5845 16.8006H19.0245C18.6362 16.8006 18.3214 16.4858 18.3214 16.0974C18.3214 15.7091 18.6362 15.3943 19.0245 15.3943H21.0855C21.7103 15.3943 22.2187 14.886 22.2187 14.2611C22.2187 13.6362 21.7103 13.1278 21.0855 13.1278H19.0245C18.6362 13.1278 18.3214 12.813 18.3214 12.4247C18.3214 12.0364 18.6362 11.7216 19.0245 11.7216V11.7217Z" fill="#FEDBAB"/>
</g>
<defs>
<clipPath id="clip0_277_2980">
<rect width="24" height="24" fill="white"/>
</clipPath>
</defs>
</svg>
