<svg width="24" height="24" viewBox="0 0 24 24" fill="none" xmlns="http://www.w3.org/2000/svg">
<g clip-path="url(#clip0_277_2922)">
<path d="M19.9935 19.9935C12.8516 27.1358 5.80159 21.8085 4.26446 20.25L3.74996 19.7355C2.19296 18.198 -3.13429 11.148 4.00796 4.00654C11.1483 -3.13571 18.1983 2.19154 19.7355 3.75004L20.25 4.26454C21.8085 5.80166 27.1357 12.8517 19.9935 19.9935Z" fill="url(#paint0_linear_277_2922)"/>
<path d="M15.0942 3.23294C15.0942 3.23294 14.3648 3.01882 12.5659 4.31444C11.637 4.98051 10.945 5.92579 10.5908 7.01257C10.5553 7.12313 10.551 7.24135 10.5783 7.35422C10.6056 7.46708 10.6635 7.57023 10.7457 7.65232C10.7886 7.69308 10.8377 7.72675 10.8912 7.75207C10.9202 7.81021 10.9582 7.86348 11.0037 7.90994C11.1446 8.02848 11.3245 8.09052 11.5086 8.08408C11.6926 8.07764 11.8677 8.00316 12 7.87507C12.8883 6.99397 13.9391 6.29353 15.0942 5.81257C14.1214 5.71631 13.141 5.88977 12.2603 6.31394C13.0071 5.12121 13.9679 4.07669 15.0942 3.23294Z" fill="#F99C06"/>
<path d="M15.0942 3.23289C15.0942 3.23289 14.3648 3.01914 12.5659 4.31439C11.637 4.98045 10.945 5.92574 10.5908 7.01251C10.5553 7.12308 10.551 7.2413 10.5783 7.35416C10.6056 7.46703 10.6635 7.57018 10.7457 7.65226C10.8867 7.77067 11.0666 7.8326 11.2506 7.82609C11.4346 7.81958 11.6097 7.74509 11.742 7.61701C12.6791 6.72815 13.8362 6.10525 15.0942 5.81251C13.9233 5.71217 12.7505 5.98283 11.742 6.58614C11.742 6.58614 12.2704 5.05051 15.0942 3.23289Z" fill="url(#paint1_linear_277_2922)"/>
<path d="M3.23294 15.0942C3.23294 15.0942 3.01882 14.3648 4.31444 12.5659C4.98051 11.637 5.92579 10.945 7.01257 10.5908C7.12313 10.5553 7.24135 10.551 7.35422 10.5783C7.46708 10.6056 7.57023 10.6635 7.65232 10.7457C7.69308 10.7886 7.72675 10.8377 7.75207 10.8912C7.81021 10.9202 7.86348 10.9582 7.90994 11.0037C8.02848 11.1446 8.09052 11.3245 8.08408 11.5086C8.07764 11.6926 8.00316 11.8677 7.87507 12C6.99397 12.8883 6.29353 13.9391 5.81257 15.0942C5.71631 14.1214 5.88977 13.141 6.31394 12.2603C5.12121 13.0071 4.07669 13.9679 3.23294 15.0942Z" fill="#F99C06"/>
<path d="M3.23289 15.0942C3.23289 15.0942 3.01914 14.3648 4.31439 12.5659C4.98045 11.637 5.92574 10.945 7.01251 10.5908C7.12308 10.5553 7.2413 10.551 7.35416 10.5783C7.46703 10.6056 7.57018 10.6635 7.65226 10.7457C7.77067 10.8867 7.8326 11.0666 7.82609 11.2506C7.81958 11.4346 7.74509 11.6097 7.61701 11.742C6.72815 12.6791 6.10525 13.8362 5.81251 15.0942C5.71217 13.9233 5.98283 12.7505 6.58614 11.742C6.58614 11.742 5.05051 12.2704 3.23289 15.0942Z" fill="url(#paint2_linear_277_2922)"/>
<path d="M18.2742 7.96429C18.1777 7.84866 18.0479 7.76559 17.9024 7.7264C17.757 7.68721 17.6031 7.69381 17.4615 7.74529C16.5514 8.07266 14.4345 9.04991 11.742 11.742C9.04954 14.4342 8.07266 16.5514 7.74529 17.4615C7.69381 17.6031 7.68721 17.757 7.7264 17.9024C7.76559 18.0479 7.84866 18.1777 7.96429 18.2742C7.99691 18.3008 8.03554 18.3312 8.07191 18.3604C8.11254 18.4251 8.16317 18.4829 8.22191 18.5318C8.53647 18.7914 8.86713 19.0309 9.21191 19.2488C10.4678 20.0363 12.4789 20.8913 14.7379 20.2928C16.0561 19.9138 17.2477 19.1865 18.1875 18.1875C19.1853 17.2472 19.9128 16.0567 20.2943 14.7398L20.2917 14.7372C20.8917 12.4782 20.034 10.467 19.2477 9.21116C19.0298 8.86638 18.7903 8.53572 18.5307 8.22116C18.4818 8.16242 18.424 8.11179 18.3593 8.07116C18.3312 8.03554 18.3 7.99691 18.2742 7.96429Z" fill="#F9BF06"/>
<path d="M18.0161 7.70623C17.9196 7.59077 17.7898 7.50782 17.6445 7.46864C17.4992 7.42946 17.3454 7.43595 17.2039 7.48723C16.2934 7.81461 14.1765 8.79223 11.4844 11.4844C8.79223 14.1765 7.81461 16.2934 7.48723 17.2039C7.43595 17.3454 7.42946 17.4992 7.46864 17.6445C7.50782 17.7898 7.59077 17.9196 7.70623 18.0161C7.73886 18.0427 7.77786 18.0735 7.81386 18.1024C7.85438 18.1672 7.90502 18.2252 7.96386 18.2741C8.27867 18.5333 8.60931 18.7726 8.95386 18.9907C10.2097 19.7782 12.2212 20.6332 14.4802 20.0351C15.7984 19.6562 16.9902 18.9293 17.9302 17.9306C18.9281 16.9903 19.6557 15.7998 20.0374 14.4829L20.0347 14.4806C20.6329 12.2216 19.7767 10.2101 18.9904 8.95423C18.7723 8.60969 18.5329 8.27905 18.2737 7.96423C18.2249 7.90539 18.1669 7.85475 18.102 7.81423C18.075 7.77786 18.0427 7.73886 18.0161 7.70623Z" fill="#ED8D06"/>
<path d="M17.4615 7.74529C17.6031 7.69381 17.757 7.68721 17.9024 7.7264C18.0479 7.76559 18.1777 7.84866 18.2742 7.96429C18.5334 8.27917 18.7728 8.60994 18.9908 8.95466C19.0012 9.32725 18.9355 9.69804 18.7975 10.0443C18.6596 10.3906 18.4524 10.705 18.1887 10.9684C18.151 10.5726 17.9671 10.2051 17.673 9.93754C17.1574 9.42191 14.5785 11.4852 13.0313 13.032C11.484 14.5789 9.42116 17.157 9.93678 17.6738C10.2048 17.9674 10.5726 18.1505 10.9684 18.1875C10.705 18.4513 10.3906 18.6585 10.0443 18.7964C9.69804 18.9343 9.32725 19.0001 8.95466 18.9897C8.60994 18.7716 8.27917 18.5323 7.96429 18.273C7.84866 18.1765 7.76559 18.0467 7.7264 17.9013C7.68721 17.7559 7.69381 17.6019 7.74529 17.4604C8.07266 16.5503 9.04991 14.4334 11.742 11.7409C14.4342 9.04841 16.5514 8.07266 17.4615 7.74529Z" fill="url(#paint3_linear_277_2922)"/>
<path d="M20.035 14.4807L20.0376 14.4829C19.656 15.7998 18.9284 16.9904 17.9305 17.9307C16.9904 18.9293 15.7987 19.6563 14.4805 20.0352C14.2998 19.5244 14.1115 18.1399 16.1249 16.125C18.1383 14.1102 19.5243 14.2999 20.035 14.4807Z" fill="#8F030E"/>
<path d="M18.1875 10.9685C18.4512 10.7051 18.6584 10.3906 18.7964 10.0444C18.9343 9.69809 19 9.3273 18.9896 8.95471C19.7771 10.2102 20.6321 12.2217 20.034 14.4807C19.5244 14.3 18.1399 14.1117 16.125 16.1251C14.1101 18.1385 14.2991 19.5237 14.4799 20.0345C12.2209 20.6326 10.2094 19.7765 8.95386 18.9901C9.32644 19.0005 9.69723 18.9348 10.0435 18.7968C10.3898 18.6589 10.7042 18.4517 10.9676 18.188C10.5722 18.1503 10.2049 17.9668 9.93748 17.6731C9.42186 17.1575 11.4851 14.5786 13.032 13.0313C14.5789 11.4841 17.157 9.42121 17.6737 9.93684C17.9673 10.2049 18.1505 10.5727 18.1875 10.9685Z" fill="url(#paint4_linear_277_2922)"/>
<path d="M17.4615 7.74529C17.6031 7.69381 17.757 7.68721 17.9024 7.7264C18.0479 7.76559 18.1777 7.84866 18.2742 7.96429C18.5334 8.27917 18.7728 8.60994 18.9908 8.95466C19.0012 9.32725 18.9355 9.69804 18.7975 10.0443C18.6596 10.3906 18.4524 10.705 18.1887 10.9684C18.151 10.5726 17.9671 10.2051 17.673 9.93754C17.1574 9.42191 14.5785 11.4852 13.0313 13.032C11.484 14.5789 9.42116 17.157 9.93678 17.6738C10.2048 17.9674 10.5726 18.1505 10.9684 18.1875C10.705 18.4513 10.3906 18.6585 10.0443 18.7964C9.69804 18.9343 9.32725 19.0001 8.95466 18.9897C8.60994 18.7716 8.27917 18.5323 7.96429 18.273C7.84866 18.1765 7.76559 18.0467 7.7264 17.9013C7.68721 17.7559 7.69381 17.6019 7.74529 17.4604C8.07266 16.5503 9.04991 14.4334 11.742 11.7409C14.4342 9.04841 16.5514 8.07266 17.4615 7.74529Z" fill="url(#paint5_linear_277_2922)"/>
<path d="M5.81242 15.6101C5.81242 15.6101 7.70204 18.0772 7.70467 19.1212C7.70467 19.6231 7.5053 20.1044 7.15044 20.4593C6.79557 20.8141 6.31427 21.0135 5.81242 21.0135C5.31056 21.0135 4.82926 20.8141 4.47439 20.4593C4.11953 20.1044 3.92017 19.6231 3.92017 19.1212C3.92167 18.0772 5.81242 15.6101 5.81242 15.6101Z" fill="url(#paint6_linear_277_2922)"/>
<path d="M5.58083 16.3631C5.60668 16.3258 5.64118 16.2954 5.68138 16.2743C5.72157 16.2533 5.76627 16.2423 5.81164 16.2423C5.85701 16.2423 5.9017 16.2533 5.9419 16.2743C5.9821 16.2954 6.0166 16.3258 6.04245 16.3631C6.32933 16.7756 6.78158 17.4806 6.78233 17.8463C6.78233 18.1038 6.68004 18.3507 6.49796 18.5328C6.31589 18.7148 6.06894 18.8171 5.81145 18.8171C5.55396 18.8171 5.30701 18.7148 5.12494 18.5328C4.94286 18.3507 4.84058 18.1038 4.84058 17.8463C4.84133 17.4806 5.29395 16.7741 5.58083 16.3631Z" fill="url(#paint7_linear_277_2922)"/>
<path d="M4.53174 19.4681C4.65569 19.707 4.83817 19.9105 5.06212 20.0597C5.28608 20.2089 5.5442 20.2989 5.81236 20.3213C6.08032 20.2987 6.33821 20.2086 6.562 20.0595C6.78578 19.9104 6.9682 19.7071 7.09224 19.4685C7.08649 19.8041 6.94914 20.124 6.70978 20.3593C6.47042 20.5946 6.1482 20.7265 5.81255 20.7265C5.4769 20.7265 5.15468 20.5946 4.91532 20.3593C4.67596 20.124 4.53861 19.8041 4.53286 19.4685L4.53174 19.4681Z" fill="url(#paint8_linear_277_2922)"/>
<path d="M15.6101 5.81254C15.6101 5.81254 18.0772 7.70216 19.1212 7.70479C19.6231 7.70479 20.1044 7.50543 20.4593 7.15056C20.8141 6.79569 21.0135 6.31439 21.0135 5.81254C21.0135 5.31068 20.8141 4.82938 20.4593 4.47452C20.1044 4.11965 19.6231 3.92029 19.1212 3.92029C18.0772 3.92179 15.6101 5.81254 15.6101 5.81254Z" fill="url(#paint9_linear_277_2922)"/>
<path d="M16.363 5.58083C16.3257 5.60668 16.2953 5.64118 16.2742 5.68138C16.2532 5.72157 16.2422 5.76627 16.2422 5.81164C16.2422 5.85701 16.2532 5.9017 16.2742 5.9419C16.2953 5.9821 16.3257 6.0166 16.363 6.04245C16.7755 6.32933 17.4805 6.78158 17.8461 6.78233C18.1036 6.78233 18.3506 6.68004 18.5326 6.49796C18.7147 6.31589 18.817 6.06894 18.817 5.81145C18.817 5.55396 18.7147 5.30701 18.5326 5.12494C18.3506 4.94286 18.1036 4.84058 17.8461 4.84058C17.4805 4.84133 16.774 5.29395 16.363 5.58083Z" fill="url(#paint10_linear_277_2922)"/>
<path d="M19.468 4.53186C19.7069 4.65581 19.9104 4.83829 20.0596 5.06224C20.2088 5.2862 20.2988 5.54432 20.3211 5.81249C20.2986 6.08045 20.2085 6.33833 20.0594 6.56212C19.9103 6.78591 19.707 6.96832 19.4684 7.09236C19.804 7.08662 20.1239 6.94927 20.3592 6.7099C20.5945 6.47054 20.7264 6.14832 20.7264 5.81267C20.7264 5.47702 20.5945 5.15481 20.3592 4.91544C20.1239 4.67608 19.804 4.53873 19.4684 4.53299L19.468 4.53186Z" fill="url(#paint11_linear_277_2922)"/>
<path d="M8.21921 19.6372C8.21659 18.5929 5.81246 15.6101 5.81246 15.6101C5.81246 15.6101 7.70209 18.0772 7.70471 19.1212C7.7046 19.4643 7.61126 19.8009 7.43467 20.095C7.25808 20.3892 7.00487 20.6298 6.70212 20.7912C6.39936 20.9525 6.05844 21.0286 5.71581 21.0112C5.37318 20.9938 5.04171 20.8837 4.75684 20.6925C4.76621 20.7067 4.77859 20.7184 4.78871 20.7322C5.02946 20.9374 5.31709 21.1639 5.65121 21.3994C5.93744 21.5117 6.24682 21.5522 6.55231 21.5173C6.85781 21.4825 7.15012 21.3734 7.40372 21.1995C7.65731 21.0256 7.86446 20.7923 8.00708 20.5199C8.14969 20.2475 8.22343 19.9443 8.22184 19.6369L8.21921 19.6372Z" fill="#ED8D06"/>
<path d="M20.6925 4.75574C20.8837 5.04061 20.9938 5.37208 21.0112 5.71471C21.0286 6.05735 20.9525 6.39826 20.7912 6.70102C20.6298 7.00377 20.3892 7.25698 20.095 7.43357C19.8009 7.61017 19.4643 7.7035 19.1212 7.70361C18.0772 7.70136 15.6101 5.81136 15.6101 5.81136C15.6101 5.81136 18.5929 8.21699 19.6369 8.21961C19.9443 8.2212 20.2475 8.14747 20.5199 8.00485C20.7923 7.86224 21.0256 7.65509 21.1995 7.40149C21.3734 7.1479 21.4825 6.85558 21.5173 6.55009C21.5522 6.24459 21.5117 5.93522 21.3994 5.64899C21.1642 5.31599 20.9374 5.02836 20.7322 4.78649C20.718 4.77786 20.7064 4.76549 20.6925 4.75574Z" fill="#ED8D06"/>
<path d="M8.79517 4.15385C8.79517 4.15385 10.1077 0.964103 14.5784 2.20123C12.5047 2.29166 10.4993 2.96877 8.79517 4.15385Z" fill="url(#paint12_linear_277_2922)"/>
<path d="M4.15373 8.79529C4.15373 8.79529 0.963981 10.1078 2.20111 14.5785C2.29154 12.5048 2.96865 10.4994 4.15373 8.79529Z" fill="url(#paint13_linear_277_2922)"/>
</g>
<defs>
<linearGradient id="paint0_linear_277_2922" x1="4.08336" y1="4.08606" x2="20.068" y2="20.0707" gradientUnits="userSpaceOnUse">
<stop stop-color="#FFE100"/>
<stop offset="1" stop-color="#F98900"/>
</linearGradient>
<linearGradient id="paint1_linear_277_2922" x1="15.2709" y1="4.06403" x2="10.6591" y2="7.25481" gradientUnits="userSpaceOnUse">
<stop stop-color="#803F02"/>
<stop offset="0.174" stop-color="#6D3602"/>
<stop offset="0.515" stop-color="#4D2601"/>
<stop offset="0.802" stop-color="#3A1C01"/>
<stop offset="1" stop-color="#331901"/>
</linearGradient>
<linearGradient id="paint2_linear_277_2922" x1="4.06328" y1="15.2717" x2="7.25406" y2="10.6598" gradientUnits="userSpaceOnUse">
<stop stop-color="#803F02"/>
<stop offset="0.174" stop-color="#6D3602"/>
<stop offset="0.515" stop-color="#4D2601"/>
<stop offset="0.802" stop-color="#3A1C01"/>
<stop offset="1" stop-color="#331901"/>
</linearGradient>
<linearGradient id="paint3_linear_277_2922" x1="8.00118" y1="18.3166" x2="18.314" y2="8.00381" gradientUnits="userSpaceOnUse">
<stop stop-color="#B8B4B2"/>
<stop offset="0.143" stop-color="#D0CCC9"/>
<stop offset="0.374" stop-color="#F2EDEA"/>
<stop offset="0.5" stop-color="#FFFAF6"/>
<stop offset="0.638" stop-color="#F9F5F1"/>
<stop offset="0.825" stop-color="#E8E5E3"/>
<stop offset="1" stop-color="#D1D1D1"/>
</linearGradient>
<linearGradient id="paint4_linear_277_2922" x1="17.8691" y1="17.8718" x2="13.0735" y2="13.0762" gradientUnits="userSpaceOnUse">
<stop stop-color="#69101B"/>
<stop offset="0.345" stop-color="#5F0F18"/>
<stop offset="0.934" stop-color="#430B11"/>
<stop offset="1" stop-color="#400A10"/>
</linearGradient>
<linearGradient id="paint5_linear_277_2922" x1="11.788" y1="11.7906" x2="14.2417" y2="14.2443" gradientUnits="userSpaceOnUse">
<stop stop-color="#ABABAB" stop-opacity="0.5"/>
<stop offset="0.541" stop-color="#C1C1C1" stop-opacity="0.216"/>
<stop offset="1" stop-color="#D1D1D1" stop-opacity="0"/>
</linearGradient>
<linearGradient id="paint6_linear_277_2922" x1="5.74829" y1="15.6751" x2="5.84507" y2="21.1269" gradientUnits="userSpaceOnUse">
<stop offset="0.005" stop-color="#72E9FF"/>
<stop offset="0.402" stop-color="#53CDFF"/>
<stop offset="1" stop-color="#29A6FF"/>
</linearGradient>
<linearGradient id="paint7_linear_277_2922" x1="5.78186" y1="16.2728" x2="5.82799" y2="18.871" gradientUnits="userSpaceOnUse">
<stop stop-color="#CCEDFF"/>
<stop offset="0.142" stop-color="#C1E9FF"/>
<stop offset="0.394" stop-color="#A3DFFF"/>
<stop offset="0.724" stop-color="#73CFFF"/>
<stop offset="1" stop-color="#45BFFF"/>
</linearGradient>
<linearGradient id="paint8_linear_277_2922" x1="5.03612" y1="20.5079" x2="6.58285" y2="18.9611" gradientUnits="userSpaceOnUse">
<stop offset="0.005" stop-color="#87E3FF"/>
<stop offset="0.096" stop-color="#79DBFF"/>
<stop offset="0.342" stop-color="#59C7FD"/>
<stop offset="0.58" stop-color="#43B9FD"/>
<stop offset="0.804" stop-color="#35B1FC"/>
<stop offset="1" stop-color="#30AEFC"/>
</linearGradient>
<linearGradient id="paint9_linear_277_2922" x1="15.677" y1="5.74654" x2="21.1288" y2="5.84331" gradientUnits="userSpaceOnUse">
<stop offset="0.005" stop-color="#72E9FF"/>
<stop offset="0.402" stop-color="#53CDFF"/>
<stop offset="1" stop-color="#29A6FF"/>
</linearGradient>
<linearGradient id="paint10_linear_277_2922" x1="16.2745" y1="5.77999" x2="18.8727" y2="5.82612" gradientUnits="userSpaceOnUse">
<stop stop-color="#CCEDFF"/>
<stop offset="0.142" stop-color="#C1E9FF"/>
<stop offset="0.394" stop-color="#A3DFFF"/>
<stop offset="0.724" stop-color="#73CFFF"/>
<stop offset="1" stop-color="#45BFFF"/>
</linearGradient>
<linearGradient id="paint11_linear_277_2922" x1="20.5096" y1="5.03436" x2="18.9629" y2="6.5811" gradientUnits="userSpaceOnUse">
<stop offset="0.005" stop-color="#87E3FF"/>
<stop offset="0.096" stop-color="#79DBFF"/>
<stop offset="0.342" stop-color="#59C7FD"/>
<stop offset="0.58" stop-color="#43B9FD"/>
<stop offset="0.804" stop-color="#35B1FC"/>
<stop offset="1" stop-color="#30AEFC"/>
</linearGradient>
<linearGradient id="paint12_linear_277_2922" x1="8.89838" y1="2.881" x2="14.4923" y2="3.32425" gradientUnits="userSpaceOnUse">
<stop offset="0.005" stop-color="#414D4D"/>
<stop offset="0.206" stop-color="#3A4545"/>
<stop offset="0.522" stop-color="#272E2E"/>
<stop offset="0.914" stop-color="#080909"/>
<stop offset="1"/>
</linearGradient>
<linearGradient id="paint13_linear_277_2922" x1="2.88236" y1="8.89794" x2="3.32561" y2="14.4919" gradientUnits="userSpaceOnUse">
<stop offset="0.005" stop-color="#414D4D"/>
<stop offset="0.206" stop-color="#3A4545"/>
<stop offset="0.522" stop-color="#272E2E"/>
<stop offset="0.914" stop-color="#080909"/>
<stop offset="1"/>
</linearGradient>
<clipPath id="clip0_277_2922">
<rect width="24" height="24" fill="white"/>
</clipPath>
</defs>
</svg>
