<svg width="24" height="21" viewBox="0 0 24 21" fill="none" xmlns="http://www.w3.org/2000/svg">
<path fill-rule="evenodd" clip-rule="evenodd" d="M21.4176 12.409C20.9665 12.1314 20.3851 12.1999 20.0104 12.5734C19.0007 13.5831 17.0498 15.5352 16.0607 16.5232C15.702 16.8818 15.6232 17.4335 15.8665 17.879C16.1898 18.4695 16.6478 19.3068 17.0327 20.0104C17.2052 20.3256 17.5159 20.5415 17.8722 20.5929C18.2286 20.6443 18.5872 20.5243 18.842 20.2696L23.6655 15.4461C23.9134 15.1994 24.0333 14.8533 23.9922 14.506C23.9522 14.1588 23.7546 13.8493 23.4576 13.6665C22.7929 13.2565 21.9933 12.7642 21.4176 12.409Z" fill="#576FB5"/>
<path fill-rule="evenodd" clip-rule="evenodd" d="M2.58248 12.409C3.03366 12.1314 3.61504 12.1999 3.98968 12.5734C4.9994 13.5831 6.95029 15.5352 7.93944 16.5232C8.2981 16.8818 8.37691 17.4335 8.13362 17.879C7.81037 18.4695 7.35235 19.3068 6.96742 20.0104C6.79495 20.3256 6.48427 20.5415 6.1279 20.5929C5.77153 20.6443 5.41288 20.5243 5.15816 20.2696C3.84006 18.9515 1.62645 16.7379 0.334616 15.4461C0.0867566 15.1994 -0.0331753 14.8533 0.00794426 14.506C0.0479216 14.1588 0.245524 13.8493 0.542498 13.6665C1.20726 13.2565 2.00681 12.7642 2.58248 12.409Z" fill="#576FB5"/>
<path fill-rule="evenodd" clip-rule="evenodd" d="M15.4231 15.5455L13.2404 13.3627C12.8121 12.9344 12.571 12.353 12.571 11.7476C12.571 9.45749 12.571 3.62194 12.571 1.14221C12.571 0.839524 12.691 0.54826 12.9057 0.334667C13.1193 0.119932 13.4106 0 13.7133 0H14.5402C15.0748 0 15.5385 0.37236 15.655 0.89435C16.1108 2.94576 17.2221 7.94749 17.6196 9.73619C17.7133 10.1599 17.9269 10.5483 18.2341 10.8556L19.173 11.7956L15.4231 15.5455Z" fill="#F5C6AF"/>
<path fill-rule="evenodd" clip-rule="evenodd" d="M4.8269 11.7956L8.57678 15.5455L10.7595 13.3627C11.1879 12.9344 11.4289 12.353 11.4289 11.7476C11.4289 9.45749 11.4289 3.62194 11.4289 1.14221C11.4289 0.839524 11.3089 0.54826 11.0942 0.334667C10.8806 0.119932 10.5893 0 10.2867 0C10.0125 0 9.72241 0 9.4597 0C8.92515 0 8.46141 0.37236 8.34491 0.89435C7.88917 2.94576 6.7778 7.94749 6.38031 9.73619C6.28665 10.1599 6.07305 10.5483 5.7658 10.8556L4.8269 11.7956Z" fill="#F5C6AF"/>
</svg>
