<svg width="24" height="24" viewBox="0 0 24 24" fill="none" xmlns="http://www.w3.org/2000/svg">
<path d="M22.5 12C22.5 14.0767 21.8842 16.1068 20.7304 17.8335C19.5767 19.5602 17.9368 20.906 16.0182 21.7007C14.0996 22.4955 11.9884 22.7034 9.95156 22.2982C7.91476 21.8931 6.04384 20.8931 4.57538 19.4246C3.10693 17.9562 2.1069 16.0852 1.70176 14.0484C1.29661 12.0116 1.50455 9.90045 2.29927 7.98182C3.09399 6.0632 4.4398 4.42332 6.16652 3.26957C7.89323 2.11581 9.9233 1.5 12 1.5C14.7848 1.5 17.4555 2.60625 19.4246 4.57538C21.3938 6.54451 22.5 9.21523 22.5 12ZM6 12.5C5.93263 12.4999 5.86593 12.5135 5.80393 12.5399C5.74192 12.5662 5.68589 12.6049 5.63919 12.6534C5.59249 12.702 5.55609 12.7595 5.53217 12.8225C5.50825 12.8855 5.49731 12.9527 5.5 13.02C5.55998 14.7229 6.26465 16.3395 7.47141 17.5425C8.67817 18.7456 10.2969 19.4453 12 19.5C13.7029 19.44 15.3195 18.7354 16.5225 17.5286C17.7256 16.3218 18.4253 14.7031 18.48 13C18.4827 12.9327 18.4718 12.8655 18.4478 12.8025C18.4239 12.7395 18.3875 12.682 18.3408 12.6334C18.2941 12.5849 18.2381 12.5462 18.1761 12.5199C18.1141 12.4935 18.0474 12.4799 17.98 12.48L6 12.5ZM8 8.5C7.90111 8.5 7.80444 8.52932 7.72222 8.58426C7.63999 8.63921 7.57591 8.7173 7.53806 8.80866C7.50022 8.90002 7.49032 9.00056 7.50961 9.09755C7.5289 9.19454 7.57653 9.28363 7.64645 9.35355C7.71638 9.42348 7.80547 9.4711 7.90246 9.49039C7.99945 9.50969 8.09998 9.49978 8.19135 9.46194C8.28271 9.4241 8.3608 9.36001 8.41574 9.27779C8.47068 9.19556 8.5 9.09889 8.5 9C8.5 8.86739 8.44733 8.74021 8.35356 8.64645C8.25979 8.55268 8.13261 8.5 8 8.5ZM16 8.5C15.9011 8.5 15.8044 8.52932 15.7222 8.58426C15.64 8.63921 15.5759 8.7173 15.5381 8.80866C15.5002 8.90002 15.4903 9.00056 15.5096 9.09755C15.5289 9.19454 15.5765 9.28363 15.6465 9.35355C15.7164 9.42348 15.8055 9.4711 15.9025 9.49039C15.9994 9.50969 16.1 9.49978 16.1913 9.46194C16.2827 9.4241 16.3608 9.36001 16.4157 9.27779C16.4707 9.19556 16.5 9.09889 16.5 9C16.5 8.86739 16.4473 8.74021 16.3536 8.64645C16.2598 8.55268 16.1326 8.5 16 8.5Z" stroke="#232323" stroke-linecap="round" stroke-linejoin="round"/>
<path d="M22.5 12C22.5 14.0767 21.8842 16.1068 20.7304 17.8335C19.5767 19.5602 17.9368 20.906 16.0182 21.7007C14.0996 22.4955 11.9884 22.7034 9.95156 22.2982C7.91476 21.8931 6.04384 20.8931 4.57538 19.4246C3.10693 17.9562 2.1069 16.0852 1.70176 14.0484C1.29661 12.0116 1.50455 9.90045 2.29927 7.98182C3.09399 6.0632 4.4398 4.42332 6.16652 3.26957C7.89323 2.11581 9.9233 1.5 12 1.5C14.7848 1.5 17.4555 2.60625 19.4246 4.57538C21.3938 6.54451 22.5 9.21523 22.5 12ZM6 12.5C5.93263 12.4999 5.86593 12.5135 5.80393 12.5399C5.74192 12.5662 5.68589 12.6049 5.63919 12.6534C5.59249 12.702 5.55609 12.7595 5.53217 12.8225C5.50825 12.8855 5.49731 12.9527 5.5 13.02C5.55998 14.7229 6.26465 16.3395 7.47141 17.5425C8.67817 18.7456 10.2969 19.4453 12 19.5C13.7029 19.44 15.3195 18.7354 16.5225 17.5286C17.7256 16.3218 18.4253 14.7031 18.48 13C18.4827 12.9327 18.4718 12.8655 18.4478 12.8025C18.4239 12.7395 18.3875 12.682 18.3408 12.6334C18.2941 12.5849 18.2381 12.5462 18.1761 12.5199C18.1141 12.4935 18.0474 12.4799 17.98 12.48L6 12.5ZM8 8.5C7.90111 8.5 7.80444 8.52932 7.72222 8.58426C7.63999 8.63921 7.57591 8.7173 7.53806 8.80866C7.50022 8.90002 7.49032 9.00056 7.50961 9.09755C7.5289 9.19454 7.57653 9.28363 7.64645 9.35355C7.71638 9.42348 7.80547 9.4711 7.90246 9.49039C7.99945 9.50969 8.09998 9.49978 8.19135 9.46194C8.28271 9.4241 8.3608 9.36001 8.41574 9.27779C8.47068 9.19556 8.5 9.09889 8.5 9C8.5 8.86739 8.44733 8.74021 8.35356 8.64645C8.25979 8.55268 8.13261 8.5 8 8.5ZM16 8.5C15.9011 8.5 15.8044 8.52932 15.7222 8.58426C15.64 8.63921 15.5759 8.7173 15.5381 8.80866C15.5002 8.90002 15.4903 9.00056 15.5096 9.09755C15.5289 9.19454 15.5765 9.28363 15.6465 9.35355C15.7164 9.42348 15.8055 9.4711 15.9025 9.49039C15.9994 9.50969 16.1 9.49978 16.1913 9.46194C16.2827 9.4241 16.3608 9.36001 16.4157 9.27779C16.4707 9.19556 16.5 9.09889 16.5 9C16.5 8.86739 16.4473 8.74021 16.3536 8.64645C16.2598 8.55268 16.1326 8.5 16 8.5Z" stroke="black" stroke-opacity="0.2" stroke-linecap="round" stroke-linejoin="round"/>
<path d="M22.5 12C22.5 14.0767 21.8842 16.1068 20.7304 17.8335C19.5767 19.5602 17.9368 20.906 16.0182 21.7007C14.0996 22.4955 11.9884 22.7034 9.95156 22.2982C7.91476 21.8931 6.04384 20.8931 4.57538 19.4246C3.10693 17.9562 2.1069 16.0852 1.70176 14.0484C1.29661 12.0116 1.50455 9.90045 2.29927 7.98182C3.09399 6.0632 4.4398 4.42332 6.16652 3.26957C7.89323 2.11581 9.9233 1.5 12 1.5C14.7848 1.5 17.4555 2.60625 19.4246 4.57538C21.3938 6.54451 22.5 9.21523 22.5 12ZM6 12.5C5.93263 12.4999 5.86593 12.5135 5.80393 12.5399C5.74192 12.5662 5.68589 12.6049 5.63919 12.6534C5.59249 12.702 5.55609 12.7595 5.53217 12.8225C5.50825 12.8855 5.49731 12.9527 5.5 13.02C5.55998 14.7229 6.26465 16.3395 7.47141 17.5425C8.67817 18.7456 10.2969 19.4453 12 19.5C13.7029 19.44 15.3195 18.7354 16.5225 17.5286C17.7256 16.3218 18.4253 14.7031 18.48 13C18.4827 12.9327 18.4718 12.8655 18.4478 12.8025C18.4239 12.7395 18.3875 12.682 18.3408 12.6334C18.2941 12.5849 18.2381 12.5462 18.1761 12.5199C18.1141 12.4935 18.0474 12.4799 17.98 12.48L6 12.5ZM8 8.5C7.90111 8.5 7.80444 8.52932 7.72222 8.58426C7.63999 8.63921 7.57591 8.7173 7.53806 8.80866C7.50022 8.90002 7.49032 9.00056 7.50961 9.09755C7.5289 9.19454 7.57653 9.28363 7.64645 9.35355C7.71638 9.42348 7.80547 9.4711 7.90246 9.49039C7.99945 9.50969 8.09998 9.49978 8.19135 9.46194C8.28271 9.4241 8.3608 9.36001 8.41574 9.27779C8.47068 9.19556 8.5 9.09889 8.5 9C8.5 8.86739 8.44733 8.74021 8.35356 8.64645C8.25979 8.55268 8.13261 8.5 8 8.5ZM16 8.5C15.9011 8.5 15.8044 8.52932 15.7222 8.58426C15.64 8.63921 15.5759 8.7173 15.5381 8.80866C15.5002 8.90002 15.4903 9.00056 15.5096 9.09755C15.5289 9.19454 15.5765 9.28363 15.6465 9.35355C15.7164 9.42348 15.8055 9.4711 15.9025 9.49039C15.9994 9.50969 16.1 9.49978 16.1913 9.46194C16.2827 9.4241 16.3608 9.36001 16.4157 9.27779C16.4707 9.19556 16.5 9.09889 16.5 9C16.5 8.86739 16.4473 8.74021 16.3536 8.64645C16.2598 8.55268 16.1326 8.5 16 8.5Z" stroke="black" stroke-opacity="0.2" stroke-linecap="round" stroke-linejoin="round"/>
</svg>
