<svg width="24" height="24" viewBox="0 0 24 24" fill="none" xmlns="http://www.w3.org/2000/svg">
<path d="M11.5 19.5H14.09C14.464 19.5 14.8226 19.3515 15.087 19.087C15.3514 18.8226 15.5 18.464 15.5 18.09V18.09C15.5008 17.9045 15.465 17.7208 15.3946 17.5492C15.3243 17.3776 15.2207 17.2215 15.09 17.09L13.5 16.5L14.82 15.84C15.0243 15.7379 15.1961 15.5809 15.3162 15.3866C15.4363 15.1923 15.5 14.9684 15.5 14.74V14.74C15.5013 14.5768 15.4702 14.415 15.4083 14.2639C15.3465 14.1129 15.2552 13.9756 15.1398 13.8602C15.0244 13.7448 14.8871 13.6535 14.7361 13.5917C14.5851 13.5298 14.4232 13.4987 14.26 13.5H11.5M1.5 12C1.5 9.9233 2.11581 7.89323 3.26957 6.16652C4.42332 4.4398 6.0632 3.09399 7.98182 2.29927C9.90045 1.50455 12.0116 1.29661 14.0484 1.70176C16.0852 2.1069 17.9562 3.10693 19.4246 4.57538C20.8931 6.04384 21.8931 7.91476 22.2982 9.95156C22.7034 11.9884 22.4955 14.0996 21.7007 16.0182C20.906 17.9368 19.5602 19.5767 17.8335 20.7304C16.1068 21.8842 14.0767 22.5 12 22.5C9.21523 22.5 6.54451 21.3938 4.57538 19.4246C2.60625 17.4555 1.5 14.7848 1.5 12V12ZM8 8.5C7.90111 8.5 7.80444 8.52933 7.72221 8.58427C7.63999 8.63921 7.5759 8.7173 7.53806 8.80866C7.50022 8.90003 7.49031 9.00056 7.50961 9.09755C7.5289 9.19454 7.57652 9.28363 7.64645 9.35356C7.71637 9.42348 7.80546 9.4711 7.90245 9.4904C7.99945 9.50969 8.09998 9.49979 8.19134 9.46194C8.2827 9.4241 8.36079 9.36001 8.41574 9.27779C8.47068 9.19557 8.5 9.0989 8.5 9C8.5 8.8674 8.44732 8.74022 8.35355 8.64645C8.25979 8.55268 8.13261 8.5 8 8.5ZM16 8.5C15.9011 8.5 15.8044 8.52933 15.7222 8.58427C15.64 8.63921 15.5759 8.7173 15.5381 8.80866C15.5002 8.90003 15.4903 9.00056 15.5096 9.09755C15.5289 9.19454 15.5765 9.28363 15.6464 9.35356C15.7164 9.42348 15.8055 9.4711 15.9025 9.4904C15.9994 9.50969 16.1 9.49979 16.1913 9.46194C16.2827 9.4241 16.3608 9.36001 16.4157 9.27779C16.4707 9.19557 16.5 9.0989 16.5 9C16.5 8.8674 16.4473 8.74022 16.3536 8.64645C16.2598 8.55268 16.1326 8.5 16 8.5Z" stroke="#232323" stroke-linecap="round" stroke-linejoin="round"/>
<path d="M11.5 19.5H14.09C14.464 19.5 14.8226 19.3515 15.087 19.087C15.3514 18.8226 15.5 18.464 15.5 18.09V18.09C15.5008 17.9045 15.465 17.7208 15.3946 17.5492C15.3243 17.3776 15.2207 17.2215 15.09 17.09L13.5 16.5L14.82 15.84C15.0243 15.7379 15.1961 15.5809 15.3162 15.3866C15.4363 15.1923 15.5 14.9684 15.5 14.74V14.74C15.5013 14.5768 15.4702 14.415 15.4083 14.2639C15.3465 14.1129 15.2552 13.9756 15.1398 13.8602C15.0244 13.7448 14.8871 13.6535 14.7361 13.5917C14.5851 13.5298 14.4232 13.4987 14.26 13.5H11.5M1.5 12C1.5 9.9233 2.11581 7.89323 3.26957 6.16652C4.42332 4.4398 6.0632 3.09399 7.98182 2.29927C9.90045 1.50455 12.0116 1.29661 14.0484 1.70176C16.0852 2.1069 17.9562 3.10693 19.4246 4.57538C20.8931 6.04384 21.8931 7.91476 22.2982 9.95156C22.7034 11.9884 22.4955 14.0996 21.7007 16.0182C20.906 17.9368 19.5602 19.5767 17.8335 20.7304C16.1068 21.8842 14.0767 22.5 12 22.5C9.21523 22.5 6.54451 21.3938 4.57538 19.4246C2.60625 17.4555 1.5 14.7848 1.5 12V12ZM8 8.5C7.90111 8.5 7.80444 8.52933 7.72221 8.58427C7.63999 8.63921 7.5759 8.7173 7.53806 8.80866C7.50022 8.90003 7.49031 9.00056 7.50961 9.09755C7.5289 9.19454 7.57652 9.28363 7.64645 9.35356C7.71637 9.42348 7.80546 9.4711 7.90245 9.4904C7.99945 9.50969 8.09998 9.49979 8.19134 9.46194C8.2827 9.4241 8.36079 9.36001 8.41574 9.27779C8.47068 9.19557 8.5 9.0989 8.5 9C8.5 8.8674 8.44732 8.74022 8.35355 8.64645C8.25979 8.55268 8.13261 8.5 8 8.5ZM16 8.5C15.9011 8.5 15.8044 8.52933 15.7222 8.58427C15.64 8.63921 15.5759 8.7173 15.5381 8.80866C15.5002 8.90003 15.4903 9.00056 15.5096 9.09755C15.5289 9.19454 15.5765 9.28363 15.6464 9.35356C15.7164 9.42348 15.8055 9.4711 15.9025 9.4904C15.9994 9.50969 16.1 9.49979 16.1913 9.46194C16.2827 9.4241 16.3608 9.36001 16.4157 9.27779C16.4707 9.19557 16.5 9.0989 16.5 9C16.5 8.8674 16.4473 8.74022 16.3536 8.64645C16.2598 8.55268 16.1326 8.5 16 8.5Z" stroke="black" stroke-opacity="0.2" stroke-linecap="round" stroke-linejoin="round"/>
<path d="M11.5 19.5H14.09C14.464 19.5 14.8226 19.3515 15.087 19.087C15.3514 18.8226 15.5 18.464 15.5 18.09V18.09C15.5008 17.9045 15.465 17.7208 15.3946 17.5492C15.3243 17.3776 15.2207 17.2215 15.09 17.09L13.5 16.5L14.82 15.84C15.0243 15.7379 15.1961 15.5809 15.3162 15.3866C15.4363 15.1923 15.5 14.9684 15.5 14.74V14.74C15.5013 14.5768 15.4702 14.415 15.4083 14.2639C15.3465 14.1129 15.2552 13.9756 15.1398 13.8602C15.0244 13.7448 14.8871 13.6535 14.7361 13.5917C14.5851 13.5298 14.4232 13.4987 14.26 13.5H11.5M1.5 12C1.5 9.9233 2.11581 7.89323 3.26957 6.16652C4.42332 4.4398 6.0632 3.09399 7.98182 2.29927C9.90045 1.50455 12.0116 1.29661 14.0484 1.70176C16.0852 2.1069 17.9562 3.10693 19.4246 4.57538C20.8931 6.04384 21.8931 7.91476 22.2982 9.95156C22.7034 11.9884 22.4955 14.0996 21.7007 16.0182C20.906 17.9368 19.5602 19.5767 17.8335 20.7304C16.1068 21.8842 14.0767 22.5 12 22.5C9.21523 22.5 6.54451 21.3938 4.57538 19.4246C2.60625 17.4555 1.5 14.7848 1.5 12V12ZM8 8.5C7.90111 8.5 7.80444 8.52933 7.72221 8.58427C7.63999 8.63921 7.5759 8.7173 7.53806 8.80866C7.50022 8.90003 7.49031 9.00056 7.50961 9.09755C7.5289 9.19454 7.57652 9.28363 7.64645 9.35356C7.71637 9.42348 7.80546 9.4711 7.90245 9.4904C7.99945 9.50969 8.09998 9.49979 8.19134 9.46194C8.2827 9.4241 8.36079 9.36001 8.41574 9.27779C8.47068 9.19557 8.5 9.0989 8.5 9C8.5 8.8674 8.44732 8.74022 8.35355 8.64645C8.25979 8.55268 8.13261 8.5 8 8.5ZM16 8.5C15.9011 8.5 15.8044 8.52933 15.7222 8.58427C15.64 8.63921 15.5759 8.7173 15.5381 8.80866C15.5002 8.90003 15.4903 9.00056 15.5096 9.09755C15.5289 9.19454 15.5765 9.28363 15.6464 9.35356C15.7164 9.42348 15.8055 9.4711 15.9025 9.4904C15.9994 9.50969 16.1 9.49979 16.1913 9.46194C16.2827 9.4241 16.3608 9.36001 16.4157 9.27779C16.4707 9.19557 16.5 9.0989 16.5 9C16.5 8.8674 16.4473 8.74022 16.3536 8.64645C16.2598 8.55268 16.1326 8.5 16 8.5Z" stroke="black" stroke-opacity="0.2" stroke-linecap="round" stroke-linejoin="round"/>
</svg>
