<svg width="24" height="24" viewBox="0 0 24 24" fill="none" xmlns="http://www.w3.org/2000/svg">
<g clip-path="url(#clip0_38_822)">
<g clip-path="url(#clip1_38_822)">
<path d="M18.0158 3.11331L13.2982 4.53014L9.18207 8.04075V12.4802L10.8602 16.2427L15.2296 17.4076L20.1056 15.6444L22.7177 10.2132V1.90112L18.0158 3.11331Z" fill="#9CCA6B"/>
<path d="M9.18207 12.6848L9.48287 7.33235L8.04223 6.70264L1.70978 5.41174L2.04223 10.5596L3.51453 14.2276L5.57258 16.1167L8.39052 16.8566L10.1478 15.8649L9.18207 12.6848Z" fill="#88BE51"/>
<path d="M10.0528 23.4213C10.0211 22.0832 10.1636 20.7765 10.496 19.4856C10.6544 18.8717 10.8602 18.2577 11.0976 17.6595C12.3641 18.4781 13.7889 18.8717 15.2137 18.8717C17.4934 18.8717 19.7573 17.8484 21.2454 15.9121C25.4248 10.5123 23.5726 0.515747 23.5726 0.515747C23.5726 0.515747 13.8206 1.27139 9.48285 6.35627C6.18997 4.60883 1.86808 4.45141 0.474935 4.45141C0.189975 4.45141 0.0158325 4.45141 0.0158325 4.45141C0.0158325 4.46715 -0.474933 12.3542 3.24538 16.1482C4.40106 17.3289 5.93668 17.9271 7.4723 17.9271C7.9314 17.9271 8.3905 17.8799 8.83377 17.7697C8.70713 18.1632 8.58048 18.5411 8.48549 18.9346C8.08971 20.4459 7.91557 21.973 7.96306 23.5157L10.0528 23.437V23.4213ZM7.4723 15.8491C6.42744 15.8491 5.46174 15.4398 4.73351 14.6999C3.53034 13.4877 2.70713 11.3939 2.31135 8.68618C2.20053 7.93053 2.1372 7.22211 2.12137 6.60815C2.97625 6.67112 4.02111 6.79706 5.11346 7.01746C6.36412 7.28508 7.45647 7.64716 8.35884 8.1037C7.91557 9.04826 7.6781 10.0558 7.64644 11.0633C7.31399 10.6855 7.09235 10.4336 7.06069 10.4021C6.88655 10.1975 6.63325 10.0715 6.34829 10.0558C5.77837 10.0243 5.2876 10.4651 5.25594 11.0318C5.24011 11.3152 5.33509 11.5828 5.52507 11.7875C6.66491 13.0626 7.91557 14.5424 8.73879 15.6444C8.34301 15.7861 7.91557 15.8491 7.48813 15.8491H7.4723ZM10.8602 7.96202C12.6649 5.63211 15.9894 4.30972 18.4591 3.58556C19.6939 3.22348 20.8654 2.98734 21.7836 2.82992C21.8628 3.74299 21.9261 4.92369 21.9103 6.21458C21.8628 8.78063 21.4037 12.307 19.6148 14.6369C18.5541 16.0065 16.9551 16.7779 15.2296 16.7779C14.0581 16.7779 12.9499 16.4158 12.0158 15.7389C12.3166 15.1879 12.6649 14.6369 13.0449 14.1016C15.1187 11.1263 17.5567 9.44182 17.5884 9.42608C17.905 9.20569 18.095 8.81212 18.0317 8.40281C17.9367 7.83608 17.3984 7.45825 16.8285 7.55271C16.6702 7.58419 16.5277 7.63142 16.4169 7.72588C16.3061 7.80459 13.6939 9.59925 11.3826 12.858C11.0818 13.283 10.7968 13.7081 10.5435 14.1489C10.1478 13.5034 9.89446 12.7793 9.78364 12.0079C9.59367 10.5596 9.98945 9.11123 10.876 7.94627L10.8602 7.96202Z" fill="#968364"/>
</g>
</g>
<defs>
<clipPath id="clip0_38_822">
<rect width="24" height="24" fill="white"/>
</clipPath>
<clipPath id="clip1_38_822">
<rect width="24" height="23" fill="white" transform="translate(0 0.5)"/>
</clipPath>
</defs>
</svg>
