<svg width="24" height="24" viewBox="0 0 24 24" fill="none" xmlns="http://www.w3.org/2000/svg">
<path d="M5.50001 13.5L8.50001 10.5L5.50001 9.50005M9.50001 5.50005L10.5 8.50005L13.5 5.50005M19.42 4.58005C20.8864 6.04738 21.8848 7.91653 22.289 9.9512C22.6932 11.9859 22.485 14.0947 21.6908 16.0111C20.8967 17.9275 19.5521 19.5654 17.8272 20.7177C16.1023 21.8701 14.0744 22.4851 12 22.4851C9.92558 22.4851 7.89772 21.8701 6.1728 20.7177C4.44788 19.5654 3.10335 17.9275 2.30918 16.0111C1.51501 14.0947 1.30687 11.9859 1.71107 9.9512C2.11527 7.91653 3.11365 6.04738 4.58001 4.58005C5.55285 3.60284 6.70913 2.82742 7.98247 2.29831C9.25581 1.7692 10.6211 1.49683 12 1.49683C13.3789 1.49683 14.7442 1.7692 16.0176 2.29831C17.2909 2.82742 18.4472 3.60284 19.42 4.58005V4.58005ZM8.15001 16.5C8.10162 16.5467 8.06313 16.6026 8.03684 16.6645C8.01055 16.7263 7.997 16.7928 7.997 16.86C7.997 16.9273 8.01055 16.9938 8.03684 17.0556C8.06313 17.1175 8.10162 17.1734 8.15001 17.22C9.38059 18.3651 10.9991 19.0016 12.68 19.0016C14.3609 19.0016 15.9794 18.3651 17.21 17.22C18.355 15.9895 18.9916 14.3709 18.9916 12.69C18.9916 11.0092 18.355 9.39062 17.21 8.16005C17.1634 8.11166 17.1075 8.07317 17.0456 8.04688C16.9837 8.02058 16.9172 8.00703 16.85 8.00703C16.7828 8.00703 16.7163 8.02058 16.6544 8.04688C16.5926 8.07317 16.5367 8.11166 16.49 8.16005L8.15001 16.5Z" stroke="#232323" stroke-linecap="round" stroke-linejoin="round"/>
<path d="M5.50001 13.5L8.50001 10.5L5.50001 9.50005M9.50001 5.50005L10.5 8.50005L13.5 5.50005M19.42 4.58005C20.8864 6.04738 21.8848 7.91653 22.289 9.9512C22.6932 11.9859 22.485 14.0947 21.6908 16.0111C20.8967 17.9275 19.5521 19.5654 17.8272 20.7177C16.1023 21.8701 14.0744 22.4851 12 22.4851C9.92558 22.4851 7.89772 21.8701 6.1728 20.7177C4.44788 19.5654 3.10335 17.9275 2.30918 16.0111C1.51501 14.0947 1.30687 11.9859 1.71107 9.9512C2.11527 7.91653 3.11365 6.04738 4.58001 4.58005C5.55285 3.60284 6.70913 2.82742 7.98247 2.29831C9.25581 1.7692 10.6211 1.49683 12 1.49683C13.3789 1.49683 14.7442 1.7692 16.0176 2.29831C17.2909 2.82742 18.4472 3.60284 19.42 4.58005V4.58005ZM8.15001 16.5C8.10162 16.5467 8.06313 16.6026 8.03684 16.6645C8.01055 16.7263 7.997 16.7928 7.997 16.86C7.997 16.9273 8.01055 16.9938 8.03684 17.0556C8.06313 17.1175 8.10162 17.1734 8.15001 17.22C9.38059 18.3651 10.9991 19.0016 12.68 19.0016C14.3609 19.0016 15.9794 18.3651 17.21 17.22C18.355 15.9895 18.9916 14.3709 18.9916 12.69C18.9916 11.0092 18.355 9.39062 17.21 8.16005C17.1634 8.11166 17.1075 8.07317 17.0456 8.04688C16.9837 8.02058 16.9172 8.00703 16.85 8.00703C16.7828 8.00703 16.7163 8.02058 16.6544 8.04688C16.5926 8.07317 16.5367 8.11166 16.49 8.16005L8.15001 16.5Z" stroke="black" stroke-opacity="0.2" stroke-linecap="round" stroke-linejoin="round"/>
<path d="M5.50001 13.5L8.50001 10.5L5.50001 9.50005M9.50001 5.50005L10.5 8.50005L13.5 5.50005M19.42 4.58005C20.8864 6.04738 21.8848 7.91653 22.289 9.9512C22.6932 11.9859 22.485 14.0947 21.6908 16.0111C20.8967 17.9275 19.5521 19.5654 17.8272 20.7177C16.1023 21.8701 14.0744 22.4851 12 22.4851C9.92558 22.4851 7.89772 21.8701 6.1728 20.7177C4.44788 19.5654 3.10335 17.9275 2.30918 16.0111C1.51501 14.0947 1.30687 11.9859 1.71107 9.9512C2.11527 7.91653 3.11365 6.04738 4.58001 4.58005C5.55285 3.60284 6.70913 2.82742 7.98247 2.29831C9.25581 1.7692 10.6211 1.49683 12 1.49683C13.3789 1.49683 14.7442 1.7692 16.0176 2.29831C17.2909 2.82742 18.4472 3.60284 19.42 4.58005V4.58005ZM8.15001 16.5C8.10162 16.5467 8.06313 16.6026 8.03684 16.6645C8.01055 16.7263 7.997 16.7928 7.997 16.86C7.997 16.9273 8.01055 16.9938 8.03684 17.0556C8.06313 17.1175 8.10162 17.1734 8.15001 17.22C9.38059 18.3651 10.9991 19.0016 12.68 19.0016C14.3609 19.0016 15.9794 18.3651 17.21 17.22C18.355 15.9895 18.9916 14.3709 18.9916 12.69C18.9916 11.0092 18.355 9.39062 17.21 8.16005C17.1634 8.11166 17.1075 8.07317 17.0456 8.04688C16.9837 8.02058 16.9172 8.00703 16.85 8.00703C16.7828 8.00703 16.7163 8.02058 16.6544 8.04688C16.5926 8.07317 16.5367 8.11166 16.49 8.16005L8.15001 16.5Z" stroke="black" stroke-opacity="0.2" stroke-linecap="round" stroke-linejoin="round"/>
</svg>
