<svg width="24" height="24" viewBox="0 0 24 24" fill="none" xmlns="http://www.w3.org/2000/svg">
<path d="M6.5 7.5L9.5 10.5M6.5 10.5L9.5 7.5M14.5 7.5L17.5 10.5M14.5 10.5L17.5 7.5M22.5 12C22.5 14.0767 21.8842 16.1068 20.7304 17.8335C19.5767 19.5602 17.9368 20.906 16.0182 21.7007C14.0996 22.4955 11.9884 22.7034 9.95156 22.2982C7.91476 21.8931 6.04384 20.8931 4.57538 19.4246C3.10693 17.9562 2.1069 16.0852 1.70176 14.0484C1.29661 12.0116 1.50455 9.90045 2.29927 7.98182C3.09399 6.0632 4.4398 4.42332 6.16652 3.26957C7.89323 2.11581 9.9233 1.5 12 1.5C14.7848 1.5 17.4555 2.60625 19.4246 4.57538C21.3938 6.54451 22.5 9.21523 22.5 12ZM14 17.5V15.5C14 14.9696 13.7893 14.4609 13.4142 14.0858C13.0391 13.7107 12.5304 13.5 12 13.5C11.4696 13.5 10.9609 13.7107 10.5858 14.0858C10.2107 14.4609 10 14.9696 10 15.5V17.5C10 18.0304 10.2107 18.5391 10.5858 18.9142C10.9609 19.2893 11.4696 19.5 12 19.5C12.5304 19.5 13.0391 19.2893 13.4142 18.9142C13.7893 18.5391 14 18.0304 14 17.5Z" stroke="#232323" stroke-linecap="round" stroke-linejoin="round"/>
<path d="M6.5 7.5L9.5 10.5M6.5 10.5L9.5 7.5M14.5 7.5L17.5 10.5M14.5 10.5L17.5 7.5M22.5 12C22.5 14.0767 21.8842 16.1068 20.7304 17.8335C19.5767 19.5602 17.9368 20.906 16.0182 21.7007C14.0996 22.4955 11.9884 22.7034 9.95156 22.2982C7.91476 21.8931 6.04384 20.8931 4.57538 19.4246C3.10693 17.9562 2.1069 16.0852 1.70176 14.0484C1.29661 12.0116 1.50455 9.90045 2.29927 7.98182C3.09399 6.0632 4.4398 4.42332 6.16652 3.26957C7.89323 2.11581 9.9233 1.5 12 1.5C14.7848 1.5 17.4555 2.60625 19.4246 4.57538C21.3938 6.54451 22.5 9.21523 22.5 12ZM14 17.5V15.5C14 14.9696 13.7893 14.4609 13.4142 14.0858C13.0391 13.7107 12.5304 13.5 12 13.5C11.4696 13.5 10.9609 13.7107 10.5858 14.0858C10.2107 14.4609 10 14.9696 10 15.5V17.5C10 18.0304 10.2107 18.5391 10.5858 18.9142C10.9609 19.2893 11.4696 19.5 12 19.5C12.5304 19.5 13.0391 19.2893 13.4142 18.9142C13.7893 18.5391 14 18.0304 14 17.5Z" stroke="black" stroke-opacity="0.2" stroke-linecap="round" stroke-linejoin="round"/>
<path d="M6.5 7.5L9.5 10.5M6.5 10.5L9.5 7.5M14.5 7.5L17.5 10.5M14.5 10.5L17.5 7.5M22.5 12C22.5 14.0767 21.8842 16.1068 20.7304 17.8335C19.5767 19.5602 17.9368 20.906 16.0182 21.7007C14.0996 22.4955 11.9884 22.7034 9.95156 22.2982C7.91476 21.8931 6.04384 20.8931 4.57538 19.4246C3.10693 17.9562 2.1069 16.0852 1.70176 14.0484C1.29661 12.0116 1.50455 9.90045 2.29927 7.98182C3.09399 6.0632 4.4398 4.42332 6.16652 3.26957C7.89323 2.11581 9.9233 1.5 12 1.5C14.7848 1.5 17.4555 2.60625 19.4246 4.57538C21.3938 6.54451 22.5 9.21523 22.5 12ZM14 17.5V15.5C14 14.9696 13.7893 14.4609 13.4142 14.0858C13.0391 13.7107 12.5304 13.5 12 13.5C11.4696 13.5 10.9609 13.7107 10.5858 14.0858C10.2107 14.4609 10 14.9696 10 15.5V17.5C10 18.0304 10.2107 18.5391 10.5858 18.9142C10.9609 19.2893 11.4696 19.5 12 19.5C12.5304 19.5 13.0391 19.2893 13.4142 18.9142C13.7893 18.5391 14 18.0304 14 17.5Z" stroke="black" stroke-opacity="0.2" stroke-linecap="round" stroke-linejoin="round"/>
</svg>
