<svg xmlns="http://www.w3.org/2000/svg" width="24" height="24" fill="none" viewBox="0 0 24 24"><path fill="#000" fill-rule="evenodd" d="M12 0C5.37712 0 0 5.37712 0 12C0 18.6229 5.37712 24 12 24C18.6229 24 24 18.6229 24 12C24 5.37712 18.6229 0 12 0ZM12 1.67442C17.6986 1.67442 22.3256 6.3014 22.3256 12C22.3256 17.6986 17.6986 22.3256 12 22.3256C6.3014 22.3256 1.67442 17.6986 1.67442 12C1.67442 6.3014 6.3014 1.67442 12 1.67442Z" clip-rule="evenodd"/><path fill="#000" fill-rule="evenodd" d="M15.7954 15.9617C14.9291 17.1148 13.5505 17.8604 12 17.8604C10.4495 17.8604 9.0709 17.1148 8.20467 15.9617C7.92783 15.5922 7.40207 15.5185 7.03258 15.7953C6.66309 16.0733 6.58941 16.5991 6.86625 16.9685C8.03834 18.5269 9.90253 19.5349 12 19.5349C14.0975 19.5349 15.9617 18.5269 17.1338 16.9685C17.4106 16.5991 17.3369 16.0733 16.9675 15.7953C16.598 15.5185 16.0722 15.5922 15.7954 15.9617Z" clip-rule="evenodd"/><path fill="#000" d="M16.4651 11.4419C17.3898 11.4419 18.1395 10.6922 18.1395 9.76744C18.1395 8.84268 17.3898 8.09302 16.4651 8.09302C15.5403 8.09302 14.7906 8.84268 14.7906 9.76744C14.7906 10.6922 15.5403 11.4419 16.4651 11.4419Z"/><path fill="#000" d="M7.53489 11.4419C8.45965 11.4419 9.20931 10.6922 9.20931 9.76744C9.20931 8.84268 8.45965 8.09302 7.53489 8.09302C6.61014 8.09302 5.86047 8.84268 5.86047 9.76744C5.86047 10.6922 6.61014 11.4419 7.53489 11.4419Z"/></svg>